<?xml version="1.0" encoding="UTF-8" standalone="no"?>
<!-- Created with Inkscape (http://www.inkscape.org/) -->

<svg
   xmlns:dc="http://purl.org/dc/elements/1.1/"
   xmlns:cc="http://creativecommons.org/ns#"
   xmlns:rdf="http://www.w3.org/1999/02/22-rdf-syntax-ns#"
   xmlns:svg="http://www.w3.org/2000/svg"
   xmlns="http://www.w3.org/2000/svg"
   xmlns:sodipodi="http://sodipodi.sourceforge.net/DTD/sodipodi-0.dtd"
   xmlns:inkscape="http://www.inkscape.org/namespaces/inkscape"
   version="1.1"
   id="svg2"
   xml:space="preserve"
   width="156.8"
   height="156.79868"
   viewBox="0 0 156.8 156.79868"
   sodipodi:docname="53571-ink.svg"
   inkscape:version="0.92.3 (2405546, 2018-03-11)"><metadata
     id="metadata8"><rdf:RDF><cc:Work
         rdf:about=""><dc:format>image/svg+xml</dc:format><dc:type
           rdf:resource="http://purl.org/dc/dcmitype/StillImage" /><dc:title></dc:title></cc:Work></rdf:RDF></metadata><defs
     id="defs6"><clipPath
       clipPathUnits="userSpaceOnUse"
       id="clipPath24"><path
         d="m 2720.69,871.781 c 0,-324.73 -263.25,-587.98 -588,-587.98 -324.75,0 -588,263.25 -588,587.98 0,324.759 263.25,587.989 588,587.989 324.75,0 588,-263.23 588,-587.989 z"
         id="path22"
         inkscape:connector-curvature="0" /></clipPath><clipPath
       clipPathUnits="userSpaceOnUse"
       id="clipPath50"><path
         d="m 3999.75,2169.91 c 0,-324.75 -263.26,-588.01 -587.98,-588.01 -324.76,0 -588.01,263.26 -588.01,588.01 0,324.74 263.25,588 588.01,588 324.72,0 587.98,-263.26 587.98,-588 z"
         id="path48"
         inkscape:connector-curvature="0" /></clipPath><clipPath
       clipPathUnits="userSpaceOnUse"
       id="clipPath78"><path
         d="m 1428.2,871.781 c 0,-324.73 -263.25,-587.98 -587.985,-587.98 -324.746,0 -588.008,263.25 -588.008,587.98 0,324.759 263.262,588.019 588.008,588.019 324.735,0 587.985,-263.26 587.985,-588.019 z"
         id="path76"
         inkscape:connector-curvature="0" /></clipPath><clipPath
       clipPathUnits="userSpaceOnUse"
       id="clipPath104"><path
         d="m 2720.69,2169.9 c 0,-324.74 -263.25,-587.99 -588,-587.99 -324.75,0 -588,263.25 -588,587.99 0,324.74 263.25,588 588,588 324.75,0 588,-263.26 588,-588 z"
         id="path102"
         inkscape:connector-curvature="0" /></clipPath><clipPath
       clipPathUnits="userSpaceOnUse"
       id="clipPath138"><path
         d="m 1428.2,2169.9 c 0,-324.74 -263.25,-587.99 -587.985,-587.99 -324.746,0 -588.008,263.25 -588.008,587.99 0,324.74 263.262,588 588.008,588 324.735,0 587.985,-263.26 587.985,-588 z"
         id="path136"
         inkscape:connector-curvature="0" /></clipPath><clipPath
       clipPathUnits="userSpaceOnUse"
       id="clipPath162"><path
         d="m 3999.75,871.781 c 0,-324.73 -263.26,-587.98 -587.98,-587.98 -324.76,0 -588.01,263.25 -588.01,587.98 0,324.759 263.25,588.009 588.01,588.009 324.72,0 587.98,-263.25 587.98,-588.009 z"
         id="path160"
         inkscape:connector-curvature="0" /></clipPath></defs><sodipodi:namedview
     pagecolor="#ffffff"
     bordercolor="#666666"
     borderopacity="1"
     objecttolerance="10"
     gridtolerance="10"
     guidetolerance="10"
     inkscape:pageopacity="0"
     inkscape:pageshadow="2"
     inkscape:window-width="1366"
     inkscape:window-height="713"
     id="namedview4"
     showgrid="false"
     fit-margin-top="0"
     fit-margin-left="0"
     fit-margin-right="0"
     fit-margin-bottom="0"
     inkscape:zoom="1.8481438"
     inkscape:cx="95.496023"
     inkscape:cy="80.315388"
     inkscape:window-x="0"
     inkscape:window-y="30"
     inkscape:window-maximized="1"
     inkscape:current-layer="g12"
     inkscape:pagecheckerboard="true" /><g
     id="g10"
     inkscape:groupmode="layer"
     inkscape:label="ink_ext_XXXXXX"
     transform="matrix(1.3333333,0,0,-1.3333333,-9.4966096,397.65707)"><g
       id="g12"
       transform="scale(0.1)"><path
         d="m 1247.2246,2394.4281 c 0,-324.74 -263.25003,-587.99 -588.00003,-587.99 -324.75,0 -587.999996,263.25 -587.999996,587.99 0,324.74 263.249996,588 587.999996,588 324.75,0 588.00003,-263.26 588.00003,-588"
         style="fill:#6fc1c2;fill-opacity:1;fill-rule:nonzero;stroke:none"
         id="path96"
         inkscape:connector-curvature="0" /><g
         id="g98"
         transform="translate(-1473.4654,224.52806)"><g
           id="g100"
           clip-path="url(#clipPath104)"><path
             d="m 2445.43,1826.14 c -36.95,46.08 -329.42,147.23 -329.42,147.23 0,0 -286.35,-111.89 -329.46,-147.23 -43.1,-35.35 -59.23,-258.75 -59.23,-258.75 h 768.9 c 0,0 -13.86,212.67 -50.79,258.75"
             style="fill:#15355f;fill-opacity:1;fill-rule:nonzero;stroke:none"
             id="path106"
             inkscape:connector-curvature="0" /><path
             d="m 2206.66,1919.37 c 0,0 -6.06,-29.36 -40.84,-44.88 -12.5,-5.6 -28.75,-76.89 -49.76,-76.89 -22.18,0 -39.07,71.73 -51.84,77.86 -32.89,15.75 -38.72,43.91 -38.72,43.91 0,0 22.07,43.89 0,95.41 -22.07,51.52 208.17,61.97 181.16,0 -27.01,-61.97 0,-95.41 0,-95.41"
             style="fill:#d89461;fill-opacity:1;fill-rule:nonzero;stroke:none"
             id="path108"
             inkscape:connector-curvature="0" /><path
             d="m 2322.76,2124.5 c 16.87,75.67 37.23,187.1 37.23,187.1 69.76,156.03 -2.59,391.22 -137.85,318.92 -167.39,152.89 -432.21,-60.93 -342.64,-316.8 0,0 10.83,-117.1 28.24,-191.69 19.6,-83.86 164.14,-146.21 208.27,-148.66 44.14,-2.47 188.92,70.95 206.75,151.13"
             style="fill:#1e1111;fill-opacity:1;fill-rule:nonzero;stroke:none"
             id="path110"
             inkscape:connector-curvature="0" /><path
             d="m 2372.05,2266.95 c 0,-40.88 -28.98,-97.05 -48.51,-97.05 -19.55,0 -35.38,33.16 -35.38,74.03 0,40.87 19.98,61.96 35.38,74 18.91,14.81 48.51,0 48.51,-50.98"
             style="fill:#f9aa78;fill-opacity:1;fill-rule:nonzero;stroke:none"
             id="path112"
             inkscape:connector-curvature="0" /><path
             d="m 1865.82,2266.95 c 0,-40.88 28.98,-97.05 48.49,-97.05 19.54,0 35.4,33.16 35.4,74.03 0,40.87 -20.01,61.96 -35.4,74 -18.89,14.81 -48.49,0 -48.49,-50.98"
             style="fill:#f9aa78;fill-opacity:1;fill-rule:nonzero;stroke:none"
             id="path114"
             inkscape:connector-curvature="0" /><path
             d="m 2119.75,2590.98 c -137.33,0 -198.03,-96.22 -198.03,-239.71 0,-73.12 0,-130.26 0,-179.71 0,-125.01 144.41,-231.9 190.05,-231.9 45.6,0 205.99,124.99 205.99,243.4 0,46.8 0,100.7 0,168.21 0,143.49 -60.7,239.71 -198.01,239.71"
             style="fill:#f9aa78;fill-opacity:1;fill-rule:nonzero;stroke:none"
             id="path116"
             inkscape:connector-curvature="0" /><path
             d="m 2317.76,2248.86 12.37,104.7 c 0,143.51 -73.07,250.44 -210.38,250.44 -137.33,0 -205.09,-106.93 -205.09,-250.44 l 7.06,-127.73 c 0,0 16.28,27.43 14.83,67.88 -3.3,92.13 61.17,100.35 136.29,114.69 118.43,22.62 151.71,93.63 151.71,93.63 0,0 38.81,-13.15 63.61,-71.01 16.04,-37.41 19.78,-94.73 18.54,-118.17 -1.23,-23.43 11.06,-63.99 11.06,-63.99"
             style="fill:#1e1111;fill-opacity:1;fill-rule:nonzero;stroke:none"
             id="path118"
             inkscape:connector-curvature="0" /><path
             d="m 1985.52,2228.7 c -45.17,5.46 -55.56,51.75 -55.56,80.25 0,17.95 28.43,34.85 73.92,34.85 45.49,0 82.38,-14.78 82.38,-31.66 0,-72.89 -57.02,-88.72 -100.74,-83.44 z m 17.64,124.86 c -53.13,0 -86.35,-19.75 -86.35,-40.71 0,-33.3 12.15,-87.37 64.91,-93.75 51.04,-6.17 117.66,12.34 117.66,97.44 0,19.75 -43.07,37.02 -96.22,37.02"
             style="fill:#ae1319;fill-opacity:1;fill-rule:nonzero;stroke:none"
             id="path120"
             inkscape:connector-curvature="0" /><path
             d="m 2132.69,2294.96 c 0,0 -2.48,12.97 -20.03,12.97 -12.02,0 -15.07,-14.22 -15.07,-14.22 l -6.36,37.47 c 0,0 8.77,-7.54 14.63,-7.54 2.94,0 10.06,-1.46 16.06,0 5.97,1.47 10.77,7.54 10.77,7.54 v -36.22"
             style="fill:#ae1319;fill-opacity:1;fill-rule:nonzero;stroke:none"
             id="path122"
             inkscape:connector-curvature="0" /><path
             d="m 1924.22,2274.61 c 0,0 -19.12,1.37 -19.12,11.17 0,9.8 0,14.11 0,29.53 0,15.42 19.12,10.51 19.12,10.51 v -51.21"
             style="fill:#ae1319;fill-opacity:1;fill-rule:nonzero;stroke:none"
             id="path124"
             inkscape:connector-curvature="0" /><path
             d="m 2137.28,2312.14 c 0,16.88 36.87,31.66 82.36,31.66 45.49,0 73.9,-16.9 73.9,-34.85 0,-28.5 -10.38,-74.79 -55.54,-80.25 -43.69,-5.28 -100.72,10.55 -100.72,83.44 z m -13.15,4.4 c 0,-85.1 66.61,-103.61 117.67,-97.44 52.75,6.38 64.9,60.45 64.9,93.75 0,20.96 -33.21,40.71 -86.36,40.71 -53.13,0 -96.21,-17.27 -96.21,-37.02"
             style="fill:#ae1319;fill-opacity:1;fill-rule:nonzero;stroke:none"
             id="path126"
             inkscape:connector-curvature="0" /><path
             d="m 2299.29,2274.61 c 0,0 19.12,1.37 19.12,11.17 0,9.8 0,14.11 0,29.53 0,15.42 -19.12,10.51 -19.12,10.51 v -51.21"
             style="fill:#ae1319;fill-opacity:1;fill-rule:nonzero;stroke:none"
             id="path128"
             inkscape:connector-curvature="0" /></g></g></g></g></svg>